<svg xmlns="http://www.w3.org/2000/svg" viewBox="0 0 123.43 141"><defs><style>.cls-1{fill:#fff;}</style></defs><title>logo-white</title><g id="Camada_2" data-name="Camada 2"><g id="Layer_1" data-name="Layer 1"><path class="cls-1" d="M69.92,140.56A13.22,13.22,0,0,1,60,139.28l-.13-.07-11.14-6.44a2.1,2.1,0,1,1,2.1-3.63l2.71,1.56a13.39,13.39,0,0,1-.35-3v-9.17L28.39,132.8a2.1,2.1,0,0,1-1.86.12,2.48,2.48,0,0,1-.64-.24L1.18,118.41A2.09,2.09,0,0,1,.05,117a2.32,2.32,0,0,1,0-.53V40.25A2.1,2.1,0,0,1,.8,38.6a2.08,2.08,0,0,1,1.41-.83L66.66.56A2.11,2.11,0,0,1,69.14.28L93.82,14.53a1.77,1.77,0,0,1,.61.24,2.08,2.08,0,0,1,1,1.81V28.37l.15.08.46.27a2.1,2.1,0,0,1,.77,2.87,2.14,2.14,0,0,1-1.38,1V45.21l7.94-4.58a13.28,13.28,0,0,1,2.8-1.22l-6.84-3.95a2.1,2.1,0,1,1,2.1-3.63l14.72,8.5c.19.09.37.2.56.3a13.21,13.21,0,0,1,6.67,11.55v50.3A13.37,13.37,0,0,1,116.76,114L73.19,139.19A13.85,13.85,0,0,1,69.92,140.56ZM57.38,114.94v12.71a9.14,9.14,0,0,0,13.71,7.91h0l43.57-25.16a9.17,9.17,0,0,0,4.57-7.92V52.18a9,9,0,0,0-4.14-7.65l-.06,0L114.2,44a9,9,0,0,0-8.68.25l-11,6.32a1.35,1.35,0,0,1-.26.15L62,69.41a9.15,9.15,0,0,0-4.57,7.92v37.61ZM29.43,102v25.35l23.74-13.71V77.33a13.45,13.45,0,0,1,.88-4.77l-11-6.34a2.1,2.1,0,1,1,2.1-3.63l11,6.34a13.4,13.4,0,0,1,3.69-3.16L91.29,47.63V20.22L69.23,33l-.07,0L29.43,55.91V102ZM4.2,115.31l21,12.15V55.4L4.2,43.26ZM6.84,39.94,27.77,52,66.05,29.94V5.76ZM70.25,5.77V27.52L89.08,16.64ZM44.92,129.87a2.08,2.08,0,0,1-1.59-.21l-.46-.27a2.1,2.1,0,1,1,2.1-3.63l.46.27a2.09,2.09,0,0,1-.51,3.84ZM39.3,63.33a2.15,2.15,0,0,1-1.6-.22l-.46-.26a2.1,2.1,0,0,1,2.1-3.64l.46.27a2.1,2.1,0,0,1,.77,2.87A2.12,2.12,0,0,1,39.3,63.33Z"/></g></g></svg>